<?xml version="1.0" encoding="UTF-8"?>
<!DOCTYPE svg PUBLIC "-//W3C//DTD SVG 1.1//EN" "http://www.w3.org/Graphics/SVG/1.1/DTD/svg11.dtd">
<svg xmlns="http://www.w3.org/2000/svg" version="1.1" width="450px" height="441px" style="shape-rendering:geometricPrecision; text-rendering:geometricPrecision; image-rendering:optimizeQuality; fill-rule:evenodd; clip-rule:evenodd" xmlns:xlink="http://www.w3.org/1999/xlink">
<g><path style="opacity:1" fill="#c6c6c6" d="M 306.5,16.5 C 304.983,16.5106 303.816,17.1772 303,18.5C 278.806,50.8996 254.139,82.8996 229,114.5C 228.517,115.448 228.351,116.448 228.5,117.5C 227.5,117.5 226.5,117.5 225.5,117.5C 225.5,116.167 225.5,114.833 225.5,113.5C 225.073,110.99 224.407,108.657 223.5,106.5C 221.546,96.7257 219.212,87.059 216.5,77.5C 216.396,73.7934 215.396,70.46 213.5,67.5C 213.663,65.1432 213.497,62.8098 213,60.5C 212.014,56.9963 210.847,53.663 209.5,50.5C 209.326,48.139 208.993,45.8056 208.5,43.5C 206.833,43.5 205.167,43.5 203.5,43.5C 206.689,42.8339 210.023,42.1672 213.5,41.5C 214.748,39.5414 216.415,38.0414 218.5,37C 236.01,26.151 253.51,15.3176 271,4.5C 280.273,8.08807 289.773,10.9214 299.5,13C 301.97,14.0214 304.304,15.1881 306.5,16.5 Z"/></g>
<g><path style="opacity:1" fill="#878786" d="M 306.5,16.5 C 318.446,21.5717 330.112,27.4051 341.5,34C 342.574,34.7387 343.241,35.7387 343.5,37C 336.66,46.5046 329.827,56.0046 323,65.5C 322.187,67.4357 321.687,69.4357 321.5,71.5C 319.629,71.8588 318.129,72.8588 317,74.5C 291.921,110.065 267.088,145.731 242.5,181.5C 237.022,165.422 232.856,148.756 230,131.5C 229.056,126.569 227.556,121.902 225.5,117.5C 226.5,117.5 227.5,117.5 228.5,117.5C 228.351,116.448 228.517,115.448 229,114.5C 254.139,82.8996 278.806,50.8996 303,18.5C 303.816,17.1772 304.983,16.5106 306.5,16.5 Z"/></g>
<g><path style="opacity:1" fill="#878786" d="M 132.5,21.5 C 134.017,21.5106 135.184,22.1772 136,23.5C 136.39,26.1042 137.224,28.4375 138.5,30.5C 139.167,30.5 139.5,30.8333 139.5,31.5C 139.259,33.8984 139.926,35.8984 141.5,37.5C 142.117,37.6107 142.617,37.944 143,38.5C 144.967,44.4834 146.967,50.4834 149,56.5C 150.011,57.3366 151.178,57.67 152.5,57.5C 151.527,59.0683 151.36,60.735 152,62.5C 155.696,69.8991 158.863,77.5658 161.5,85.5C 161.737,88.6473 162.57,91.6473 164,94.5C 164.377,95.9423 165.21,96.9423 166.5,97.5C 167.537,98.9303 168.204,100.597 168.5,102.5C 168.77,106.358 170.103,109.691 172.5,112.5C 182.762,135.958 192.428,159.624 201.5,183.5C 200.796,185.344 199.463,185.844 197.5,185C 177.502,177.486 157.502,170.319 137.5,163.5C 138.675,163.719 139.675,163.386 140.5,162.5C 136.334,152.636 132.667,142.636 129.5,132.5C 128.444,128.832 127.278,125.165 126,121.5C 125.617,120.944 125.117,120.611 124.5,120.5C 116.089,94.7087 107.089,69.042 97.5,43.5C 98.1925,42.4822 98.8592,41.4822 99.5,40.5C 103.481,37.3694 107.647,34.3694 112,31.5C 118.931,28.2839 125.765,24.9506 132.5,21.5 Z"/></g>
<g><path style="opacity:1" fill="#d4d4d3" d="M 132.5,21.5 C 133.708,20.218 135.042,20.218 136.5,21.5C 137.642,24.3992 138.308,27.3992 138.5,30.5C 137.224,28.4375 136.39,26.1042 136,23.5C 135.184,22.1772 134.017,21.5106 132.5,21.5 Z"/></g>
<g><path style="opacity:1" fill="#babab9" d="M 139.5,31.5 C 141.074,33.1016 141.741,35.1016 141.5,37.5C 139.926,35.8984 139.259,33.8984 139.5,31.5 Z"/></g>
<g><path style="opacity:1" fill="#7c7c7b" d="M 197.5,44.5 C 199.265,43.5386 201.265,43.2053 203.5,43.5C 205.167,43.5 206.833,43.5 208.5,43.5C 208.993,45.8056 209.326,48.139 209.5,50.5C 208.833,49.5 208.167,48.5 207.5,47.5C 207.5,46.5 207.5,45.5 207.5,44.5C 204.167,44.5 200.833,44.5 197.5,44.5 Z"/></g>
<g><path style="opacity:1" fill="#3c3c3b" d="M 197.5,44.5 C 200.833,44.5 204.167,44.5 207.5,44.5C 207.5,45.5 207.5,46.5 207.5,47.5C 207.631,48.2389 207.464,48.9056 207,49.5C 206.751,48.376 206.251,47.376 205.5,46.5C 201.167,49 196.833,51.5 192.5,54C 185.157,59.0262 178.157,64.3595 171.5,70C 190.029,116.224 208.695,162.391 227.5,208.5C 228.325,209.386 229.325,209.719 230.5,209.5C 231.62,205.9 232.787,202.233 234,198.5C 236.395,192.481 239.228,186.814 242.5,181.5C 267.088,145.731 291.921,110.065 317,74.5C 318.129,72.8588 319.629,71.8588 321.5,71.5C 323.947,71.615 325.947,72.615 327.5,74.5C 327.973,75.9063 328.973,76.573 330.5,76.5C 339.427,83.4229 347.76,91.0895 355.5,99.5C 356.5,101.167 357.833,102.5 359.5,103.5C 360.803,105.142 362.136,106.809 363.5,108.5C 363.631,109.376 363.298,110.043 362.5,110.5C 356.356,107.425 350.189,104.425 344,101.5C 336.799,99.4011 329.799,96.7345 323,93.5C 293.699,133.825 264.699,174.492 236,215.5C 235.251,216.635 235.417,217.635 236.5,218.5C 246.558,217.016 256.558,215.349 266.5,213.5C 276.165,213.878 285.831,214.211 295.5,214.5C 301.69,214.177 307.69,214.51 313.5,215.5C 297.497,215.333 281.497,215.5 265.5,216C 266.167,216.333 266.833,216.667 267.5,217C 300.395,217.664 333.228,218.831 366,220.5C 371.167,220.333 376.333,220.167 381.5,220C 380.944,219.617 380.611,219.117 380.5,218.5C 387.833,218.5 395.167,218.5 402.5,218.5C 402.5,222.167 402.5,225.833 402.5,229.5C 401.883,229.611 401.383,229.944 401,230.5C 400.684,237.858 400.184,245.191 399.5,252.5C 399.5,254.167 399.5,255.833 399.5,257.5C 398.699,259.042 398.366,260.708 398.5,262.5C 396.926,264.102 396.259,266.102 396.5,268.5C 396.5,268.833 396.5,269.167 396.5,269.5C 394.787,270.635 394.12,272.302 394.5,274.5C 394.5,274.833 394.5,275.167 394.5,275.5C 393.883,275.611 393.383,275.944 393,276.5C 392.56,278.866 392.06,281.199 391.5,283.5C 391.5,283.833 391.5,284.167 391.5,284.5C 390.094,284.973 389.427,285.973 389.5,287.5C 389.5,287.833 389.5,288.167 389.5,288.5C 387.935,290.509 386.935,292.843 386.5,295.5C 386.5,295.833 386.5,296.167 386.5,296.5C 385.094,296.973 384.427,297.973 384.5,299.5C 384.5,299.833 384.5,300.167 384.5,300.5C 383.5,300.5 382.5,300.5 381.5,300.5C 382.757,286.281 382.757,271.781 381.5,257C 332.6,247.965 283.767,238.465 235,228.5C 233.833,228.833 232.667,229.167 231.5,229.5C 238.534,238.252 244.534,247.585 249.5,257.5C 266.279,297.317 282.446,337.317 298,377.5C 298.494,379.134 298.66,380.801 298.5,382.5C 297.391,382.557 296.391,382.89 295.5,383.5C 293.62,383.229 292.287,383.896 291.5,385.5C 284.86,387.327 278.193,389.161 271.5,391C 270.944,391.383 270.611,391.883 270.5,392.5C 269.833,392.5 269.167,392.5 268.5,392.5C 265.572,392.565 262.905,393.232 260.5,394.5C 260.167,394.5 259.833,394.5 259.5,394.5C 256.794,394.575 254.127,394.908 251.5,395.5C 248.813,395.664 246.146,395.497 243.5,395C 254.615,387.268 265.949,379.768 277.5,372.5C 279.122,368.57 278.288,365.237 275,362.5C 273.022,353.554 269.689,345.22 265,337.5C 261.693,325.255 257.027,313.589 251,302.5C 243.595,284.278 236.595,265.945 230,247.5C 227.132,244.06 225.465,240.06 225,235.5C 223.98,234.109 223.147,232.609 222.5,231C 221.552,230.517 220.552,230.351 219.5,230.5C 219.073,233.376 218.406,236.209 217.5,239C 213.848,245.777 210.515,252.611 207.5,259.5C 181.679,295.797 155.845,332.13 130,368.5C 128.2,367.68 126.366,367.014 124.5,366.5C 123.833,366.5 123.5,366.167 123.5,365.5C 122.71,364.599 121.71,363.932 120.5,363.5C 117.833,361.833 115.167,360.167 112.5,358.5C 112.218,357.222 111.551,356.222 110.5,355.5C 109.415,353.413 107.749,352.08 105.5,351.5C 101.694,348.605 98.3603,345.272 95.5,341.5C 95.1436,339.81 94.1436,338.81 92.5,338.5C 91.0256,337.564 90.0256,336.23 89.5,334.5C 90.2039,332.656 91.5372,332.156 93.5,333C 101.431,337.125 109.764,340.458 118.5,343C 121.237,346.288 124.57,347.122 128.5,345.5C 156.167,306.167 183.833,266.833 211.5,227.5C 214.5,226.242 215.5,224.242 214.5,221.5C 204.446,223.006 194.446,224.672 184.5,226.5C 180.5,226.5 176.5,226.5 172.5,226.5C 146.023,224.666 119.356,223.666 92.5,223.5C 89.5,223.5 86.5,223.5 83.5,223.5C 71.7028,221.932 59.7028,221.265 47.5,221.5C 47.5,216.833 47.5,212.167 47.5,207.5C 48.2818,199.146 49.2818,190.813 50.5,182.5C 52.2302,178.816 53.2302,174.816 53.5,170.5C 54.1667,170.5 54.5,170.167 54.5,169.5C 56.2132,168.365 56.8799,166.698 56.5,164.5C 56.8333,162.5 57.1667,160.5 57.5,158.5C 59.469,155.091 61.1357,151.425 62.5,147.5C 62.5,147.167 62.5,146.833 62.5,146.5C 64.1042,145.713 64.7709,144.38 64.5,142.5C 64.8333,141.833 65.1667,141.167 65.5,140.5C 65.8333,140.5 66.1667,140.5 66.5,140.5C 68.4833,154.795 69.1499,169.462 68.5,184.5C 77.0948,186.118 85.7614,187.285 94.5,188C 95.8333,188.667 97.1667,189.333 98.5,190C 115.678,192.483 132.678,195.817 149.5,200C 172.523,203.959 195.523,207.793 218.5,211.5C 218.649,210.448 218.483,209.448 218,208.5C 211.482,200.654 205.982,192.321 201.5,183.5C 192.428,159.624 182.762,135.958 172.5,112.5C 171.733,108.851 170.4,105.518 168.5,102.5C 168.204,100.597 167.537,98.9303 166.5,97.5C 165.345,93.2025 163.679,89.2025 161.5,85.5C 158.863,77.5658 155.696,69.8991 152,62.5C 151.36,60.735 151.527,59.0683 152.5,57.5C 152.833,57.5 153.167,57.5 153.5,57.5C 155.403,57.2041 157.07,56.5375 158.5,55.5C 160.306,54.9759 161.972,54.3092 163.5,53.5C 166.578,53.3803 169.245,52.3803 171.5,50.5C 173.833,49.8333 176.167,49.1667 178.5,48.5C 180.717,47.6314 183.05,47.298 185.5,47.5C 188.152,47.5905 190.485,46.9238 192.5,45.5C 193.919,44.5489 195.585,44.2155 197.5,44.5 Z"/></g>
<g><path style="opacity:1" fill="#c6c6c6" d="M 99.5,40.5 C 98.8592,41.4822 98.1925,42.4822 97.5,43.5C 107.089,69.042 116.089,94.7087 124.5,120.5C 125.414,124.936 127.081,128.936 129.5,132.5C 132.667,142.636 136.334,152.636 140.5,162.5C 139.675,163.386 138.675,163.719 137.5,163.5C 118.264,156.849 98.9308,150.182 79.5,143.5C 77.3826,141.345 74.716,140.345 71.5,140.5C 70.1932,139.847 68.8599,139.18 67.5,138.5C 66.7025,138.957 66.3691,139.624 66.5,140.5C 66.1667,140.5 65.8333,140.5 65.5,140.5C 65.2222,138.654 65.8888,137.32 67.5,136.5C 68.3331,112.84 68.8331,89.1737 69,65.5C 78.5847,56.3134 88.7514,47.98 99.5,40.5 Z"/></g>
<g><path style="opacity:1" fill="#c2c2c1" d="M 188.5,45.5 C 187.5,46.1667 186.5,46.8333 185.5,47.5C 183.05,47.298 180.717,47.6314 178.5,48.5C 178.97,47.3065 179.97,46.6399 181.5,46.5C 183.818,46.0029 186.152,45.6695 188.5,45.5 Z"/></g>
<g><path style="opacity:1" fill="#666665" d="M 188.5,45.5 C 189.833,45.5 191.167,45.5 192.5,45.5C 190.485,46.9238 188.152,47.5905 185.5,47.5C 186.5,46.8333 187.5,46.1667 188.5,45.5 Z"/></g>
<g><path style="opacity:1" fill="#565555" d="M 207.5,47.5 C 208.167,48.5 208.833,49.5 209.5,50.5C 210.847,53.663 212.014,56.9963 213,60.5C 213.497,62.8098 213.663,65.1432 213.5,67.5C 213.32,71.2856 214.32,74.619 216.5,77.5C 219.212,87.059 221.546,96.7257 223.5,106.5C 223.338,108.527 223.505,110.527 224,112.5C 224.383,113.056 224.883,113.389 225.5,113.5C 225.5,114.833 225.5,116.167 225.5,117.5C 227.556,121.902 229.056,126.569 230,131.5C 232.856,148.756 237.022,165.422 242.5,181.5C 239.228,186.814 236.395,192.481 234,198.5C 232.787,202.233 231.62,205.9 230.5,209.5C 229.325,209.719 228.325,209.386 227.5,208.5C 208.695,162.391 190.029,116.224 171.5,70C 178.157,64.3595 185.157,59.0262 192.5,54C 196.833,51.5 201.167,49 205.5,46.5C 206.251,47.376 206.751,48.376 207,49.5C 207.464,48.9056 207.631,48.2389 207.5,47.5 Z"/></g>
<g><path style="opacity:1" fill="#757574" d="M 171.5,50.5 C 169.245,52.3803 166.578,53.3803 163.5,53.5C 165.755,51.6197 168.422,50.6197 171.5,50.5 Z"/></g>
<g><path style="opacity:1" fill="#b2b2b2" d="M 163.5,53.5 C 161.972,54.3092 160.306,54.9759 158.5,55.5C 159.552,53.744 161.219,53.0773 163.5,53.5 Z"/></g>
<g><path style="opacity:1" fill="#9a9a99" d="M 158.5,55.5 C 157.07,56.5375 155.403,57.2041 153.5,57.5C 154.635,55.7868 156.302,55.1201 158.5,55.5 Z"/></g>
<g><path style="opacity:1" fill="#787878" d="M 213.5,67.5 C 215.396,70.46 216.396,73.7934 216.5,77.5C 214.32,74.619 213.32,71.2856 213.5,67.5 Z"/></g>
<g><path style="opacity:1" fill="#a7a7a6" d="M 327.5,74.5 C 329.027,74.427 330.027,75.0937 330.5,76.5C 328.973,76.573 327.973,75.9063 327.5,74.5 Z"/></g>
<g><path style="opacity:1" fill="#666665" d="M 161.5,85.5 C 163.679,89.2025 165.345,93.2025 166.5,97.5C 165.21,96.9423 164.377,95.9423 164,94.5C 162.57,91.6473 161.737,88.6473 161.5,85.5 Z"/></g>
<g><path style="opacity:1" fill="#565555" d="M 363.5,108.5 C 364.5,108.833 365.167,109.5 365.5,110.5C 359.595,114.898 354.095,119.898 349,125.5C 336.656,138.343 324.49,151.343 312.5,164.5C 311.833,164.5 311.5,164.833 311.5,165.5C 295.801,180.865 280.801,196.865 266.5,213.5C 256.558,215.349 246.558,217.016 236.5,218.5C 235.417,217.635 235.251,216.635 236,215.5C 264.699,174.492 293.699,133.825 323,93.5C 329.799,96.7345 336.799,99.4011 344,101.5C 350.189,104.425 356.356,107.425 362.5,110.5C 363.298,110.043 363.631,109.376 363.5,108.5 Z"/></g>
<g><path style="opacity:1" fill="#c1c1c0" d="M 355.5,99.5 C 358.179,99.5246 359.512,100.858 359.5,103.5C 357.833,102.5 356.5,101.167 355.5,99.5 Z"/></g>
<g><path style="opacity:1" fill="#656564" d="M 168.5,102.5 C 170.4,105.518 171.733,108.851 172.5,112.5C 170.103,109.691 168.77,106.358 168.5,102.5 Z"/></g>
<g><path style="opacity:1" fill="#8f8f8f" d="M 223.5,106.5 C 224.407,108.657 225.073,110.99 225.5,113.5C 224.883,113.389 224.383,113.056 224,112.5C 223.505,110.527 223.338,108.527 223.5,106.5 Z"/></g>
<g><path style="opacity:1" fill="#c6c6c6" d="M 365.5,110.5 C 380.674,118.283 396.008,125.783 411.5,133C 418.278,135.002 424.611,137.835 430.5,141.5C 433.467,149.662 436.301,157.996 439,166.5C 439.498,169.482 439.665,172.482 439.5,175.5C 421.163,174.541 402.83,173.541 384.5,172.5C 382.901,172.768 381.568,172.434 380.5,171.5C 363.399,169.108 346.065,167.774 328.5,167.5C 322.923,167.144 317.59,166.144 312.5,164.5C 324.49,151.343 336.656,138.343 349,125.5C 354.095,119.898 359.595,114.898 365.5,110.5 Z"/></g>
<g><path style="opacity:1" fill="#a2a2a1" d="M 124.5,120.5 C 125.117,120.611 125.617,120.944 126,121.5C 127.278,125.165 128.444,128.832 129.5,132.5C 127.081,128.936 125.414,124.936 124.5,120.5 Z"/></g>
<g><path style="opacity:1" fill="#8f8e8e" d="M 71.5,140.5 C 74.716,140.345 77.3826,141.345 79.5,143.5C 76.5568,143.02 73.8902,142.02 71.5,140.5 Z"/></g>
<g><path style="opacity:1" fill="#565555" d="M 71.5,140.5 C 73.8902,142.02 76.5568,143.02 79.5,143.5C 98.9308,150.182 118.264,156.849 137.5,163.5C 157.502,170.319 177.502,177.486 197.5,185C 199.463,185.844 200.796,185.344 201.5,183.5C 205.982,192.321 211.482,200.654 218,208.5C 218.483,209.448 218.649,210.448 218.5,211.5C 195.523,207.793 172.523,203.959 149.5,200C 132.678,195.817 115.678,192.483 98.5,190C 97.1667,189.333 95.8333,188.667 94.5,188C 85.7614,187.285 77.0948,186.118 68.5,184.5C 69.1499,169.462 68.4833,154.795 66.5,140.5C 66.3691,139.624 66.7025,138.957 67.5,138.5C 68.8599,139.18 70.1932,139.847 71.5,140.5 Z"/></g>
<g><path style="opacity:1" fill="#a9a9a9" d="M 64.5,142.5 C 64.7709,144.38 64.1042,145.713 62.5,146.5C 62.6596,144.847 63.3263,143.514 64.5,142.5 Z"/></g>
<g><path style="opacity:1" fill="#c0c0c0" d="M 62.5,147.5 C 61.1357,151.425 59.469,155.091 57.5,158.5C 57.8478,154.144 59.5145,150.477 62.5,147.5 Z"/></g>
<g><path style="opacity:1" fill="#a6a6a5" d="M 312.5,164.5 C 317.59,166.144 322.923,167.144 328.5,167.5C 322.402,168.117 316.735,167.45 311.5,165.5C 311.5,164.833 311.833,164.5 312.5,164.5 Z"/></g>
<g><path style="opacity:1" fill="#868685" d="M 311.5,165.5 C 316.735,167.45 322.402,168.117 328.5,167.5C 345.593,169.987 362.927,171.321 380.5,171.5C 381.568,172.434 382.901,172.768 384.5,172.5C 402.644,174.449 420.977,175.949 439.5,177C 440.282,179.74 440.782,182.574 441,185.5C 441.383,186.056 441.883,186.389 442.5,186.5C 442.612,191.614 443.279,196.614 444.5,201.5C 445.12,207.926 444.453,213.926 442.5,219.5C 430.011,218.341 417.344,217.507 404.5,217C 403.377,215.956 402.044,215.29 400.5,215C 364.373,213.321 328.207,212.155 292,211.5C 284.762,211.48 277.762,210.814 271,209.5C 270.167,210.333 269.333,211.167 268.5,212C 277.73,212.028 286.73,212.861 295.5,214.5C 285.831,214.211 276.165,213.878 266.5,213.5C 280.801,196.865 295.801,180.865 311.5,165.5 Z"/></g>
<g><path style="opacity:1" fill="#777776" d="M 56.5,164.5 C 56.8799,166.698 56.2132,168.365 54.5,169.5C 54.1201,167.302 54.7868,165.635 56.5,164.5 Z"/></g>
<g><path style="opacity:1" fill="#a7a7a7" d="M 328.5,167.5 C 346.065,167.774 363.399,169.108 380.5,171.5C 362.927,171.321 345.593,169.987 328.5,167.5 Z"/></g>
<g><path style="opacity:1" fill="#a7a7a7" d="M 384.5,172.5 C 402.83,173.541 421.163,174.541 439.5,175.5C 440.117,175.611 440.617,175.944 441,176.5C 441.61,179.827 442.11,183.161 442.5,186.5C 441.883,186.389 441.383,186.056 441,185.5C 440.782,182.574 440.282,179.74 439.5,177C 420.977,175.949 402.644,174.449 384.5,172.5 Z"/></g>
<g><path style="opacity:1" fill="#cfcfce" d="M 53.5,170.5 C 53.2302,174.816 52.2302,178.816 50.5,182.5C 50.5642,178.78 51.0642,175.114 52,171.5C 52.3826,170.944 52.8826,170.611 53.5,170.5 Z"/></g>
<g><path style="opacity:1" fill="#8c8c8b" d="M 442.5,219.5 C 434.167,219.5 425.833,219.5 417.5,219.5C 413.03,218.514 408.363,218.181 403.5,218.5C 403.5,220.833 403.5,223.167 403.5,225.5C 403.666,230.511 403.499,235.511 403,240.5C 402.768,241.737 402.268,242.737 401.5,243.5C 402.229,238.87 402.563,234.203 402.5,229.5C 402.5,225.833 402.5,222.167 402.5,218.5C 388.019,217.175 373.352,216.508 358.5,216.5C 343.849,215.672 329.183,215.339 314.5,215.5C 314.167,215.5 313.833,215.5 313.5,215.5C 307.69,214.51 301.69,214.177 295.5,214.5C 286.73,212.861 277.73,212.028 268.5,212C 269.333,211.167 270.167,210.333 271,209.5C 277.762,210.814 284.762,211.48 292,211.5C 328.207,212.155 364.373,213.321 400.5,215C 402.044,215.29 403.377,215.956 404.5,217C 417.344,217.507 430.011,218.341 442.5,219.5 Z"/></g>
<g><path style="opacity:1" fill="#696968" d="M 358.5,216.5 C 373.352,216.508 388.019,217.175 402.5,218.5C 395.167,218.5 387.833,218.5 380.5,218.5C 380.167,218.5 379.833,218.5 379.5,218.5C 372.5,217.833 365.5,217.167 358.5,216.5 Z"/></g>
<g><path style="opacity:1" fill="#343433" d="M 313.5,215.5 C 313.833,215.5 314.167,215.5 314.5,215.5C 336.016,216.478 357.683,217.478 379.5,218.5C 379.833,218.5 380.167,218.5 380.5,218.5C 380.611,219.117 380.944,219.617 381.5,220C 376.333,220.167 371.167,220.333 366,220.5C 333.228,218.831 300.395,217.664 267.5,217C 266.833,216.667 266.167,216.333 265.5,216C 281.497,215.5 297.497,215.333 313.5,215.5 Z"/></g>
<g><path style="opacity:1" fill="#515150" d="M 314.5,215.5 C 329.183,215.339 343.849,215.672 358.5,216.5C 365.5,217.167 372.5,217.833 379.5,218.5C 357.683,217.478 336.016,216.478 314.5,215.5 Z"/></g>
<g><path style="opacity:1" fill="#d0d0cf" d="M 444.5,201.5 C 445.222,201.918 445.722,202.584 446,203.5C 446.806,209.084 446.639,214.584 445.5,220C 435.991,220.824 426.657,220.658 417.5,219.5C 425.833,219.5 434.167,219.5 442.5,219.5C 444.453,213.926 445.12,207.926 444.5,201.5 Z"/></g>
<g><path style="opacity:1" fill="#cbcbcb" d="M 43.5,221.5 C 31.144,221.704 18.8106,221.37 6.5,220.5C 6.5,227.5 6.5,234.5 6.5,241.5C 5.73209,240.737 5.23209,239.737 5,238.5C 4.50046,232.175 4.33379,225.842 4.5,219.5C 17.6895,219.476 30.6895,220.143 43.5,221.5 Z"/></g>
<g><path style="opacity:1" fill="#878786" d="M 47.5,207.5 C 47.5,212.167 47.5,216.833 47.5,221.5C 59.3001,223.016 71.3001,223.682 83.5,223.5C 86.5,223.5 89.5,223.5 92.5,223.5C 118.988,225.045 145.655,226.045 172.5,226.5C 176.5,226.5 180.5,226.5 184.5,226.5C 168.939,243.068 153.272,259.734 137.5,276.5C 136.666,275.252 135.333,274.585 133.5,274.5C 127.146,273.887 120.813,273.221 114.5,272.5C 113.391,271.71 112.058,271.21 110.5,271C 102.524,270.066 94.5242,269.566 86.5,269.5C 77.329,268.065 67.9957,266.899 58.5,266C 50.8406,265.5 43.1739,265.334 35.5,265.5C 26.774,264.965 18.1073,264.298 9.5,263.5C 9.5,262.833 9.5,262.167 9.5,261.5C 9.15597,254.596 8.15597,247.929 6.5,241.5C 6.5,234.5 6.5,227.5 6.5,220.5C 18.8106,221.37 31.144,221.704 43.5,221.5C 44.5,221.5 45.5,221.5 46.5,221.5C 46.1805,216.637 46.5139,211.97 47.5,207.5 Z"/></g>
<g><path style="opacity:1" fill="#dcdcdb" d="M 417.5,219.5 C 413.167,219.5 408.833,219.5 404.5,219.5C 404.795,221.735 404.461,223.735 403.5,225.5C 403.5,223.167 403.5,220.833 403.5,218.5C 408.363,218.181 413.03,218.514 417.5,219.5 Z"/></g>
<g><path style="opacity:1" fill="#616160" d="M 47.5,221.5 C 59.7028,221.265 71.7028,221.932 83.5,223.5C 71.3001,223.682 59.3001,223.016 47.5,221.5 Z"/></g>
<g><path style="opacity:1" fill="#595958" d="M 92.5,223.5 C 119.356,223.666 146.023,224.666 172.5,226.5C 145.655,226.045 118.988,225.045 92.5,223.5 Z"/></g>
<g><path style="opacity:1" fill="#565555" d="M 89.5,334.5 C 88.1667,333.5 86.8333,332.5 85.5,331.5C 102.141,312.584 119.475,294.251 137.5,276.5C 153.272,259.734 168.939,243.068 184.5,226.5C 194.446,224.672 204.446,223.006 214.5,221.5C 215.5,224.242 214.5,226.242 211.5,227.5C 183.833,266.833 156.167,306.167 128.5,345.5C 124.57,347.122 121.237,346.288 118.5,343C 109.764,340.458 101.431,337.125 93.5,333C 91.5372,332.156 90.2039,332.656 89.5,334.5 Z"/></g>
<g><path style="opacity:1" fill="#535352" d="M 402.5,229.5 C 402.563,234.203 402.229,238.87 401.5,243.5C 401.5,245.5 401.5,247.5 401.5,249.5C 400.833,250.5 400.167,251.5 399.5,252.5C 400.184,245.191 400.684,237.858 401,230.5C 401.383,229.944 401.883,229.611 402.5,229.5 Z"/></g>
<g><path style="opacity:1" fill="#565555" d="M 381.5,300.5 C 375.222,299.074 369.222,297.074 363.5,294.5C 361.064,293.129 358.397,292.129 355.5,291.5C 346.565,289.02 337.898,286.02 329.5,282.5C 327.064,281.129 324.397,280.129 321.5,279.5C 319.883,278.962 318.216,278.629 316.5,278.5C 314.879,276.883 312.879,275.716 310.5,275C 303.615,274.582 297.282,272.582 291.5,269C 277.893,264.409 264.226,259.909 250.5,255.5C 249.702,255.957 249.369,256.624 249.5,257.5C 244.534,247.585 238.534,238.252 231.5,229.5C 232.667,229.167 233.833,228.833 235,228.5C 283.767,238.465 332.6,247.965 381.5,257C 382.757,271.781 382.757,286.281 381.5,300.5 Z"/></g>
<g><path style="opacity:1" fill="#565555" d="M 251.5,395.5 C 251.5,395.833 251.5,396.167 251.5,396.5C 250.833,396.5 250.167,396.5 249.5,396.5C 247.833,396.5 246.167,396.5 244.5,396.5C 242.753,395.019 241.586,393.019 241,390.5C 239.923,384.513 238.423,378.847 236.5,373.5C 232.494,356.385 228.494,339.385 224.5,322.5C 220.326,303.834 215.826,285.167 211,266.5C 210.503,264.19 210.337,261.857 210.5,259.5C 209.5,259.5 208.5,259.5 207.5,259.5C 210.515,252.611 213.848,245.777 217.5,239C 218.406,236.209 219.073,233.376 219.5,230.5C 220.552,230.351 221.552,230.517 222.5,231C 223.147,232.609 223.98,234.109 225,235.5C 225.465,240.06 227.132,244.06 230,247.5C 236.595,265.945 243.595,284.278 251,302.5C 257.027,313.589 261.693,325.255 265,337.5C 269.689,345.22 273.022,353.554 275,362.5C 278.288,365.237 279.122,368.57 277.5,372.5C 265.949,379.768 254.615,387.268 243.5,395C 246.146,395.497 248.813,395.664 251.5,395.5 Z"/></g>
<g><path style="opacity:1" fill="#c0c0c0" d="M 6.5,241.5 C 8.15597,247.929 9.15597,254.596 9.5,261.5C 7.36886,255.146 6.36886,248.479 6.5,241.5 Z"/></g>
<g><path style="opacity:1" fill="#b1b1b1" d="M 401.5,249.5 C 401.435,252.428 400.768,255.095 399.5,257.5C 399.5,255.833 399.5,254.167 399.5,252.5C 400.167,251.5 400.833,250.5 401.5,249.5 Z"/></g>
<g><path style="opacity:1" fill="#878786" d="M 316.5,278.5 C 314.883,277.962 313.216,277.629 311.5,277.5C 314.296,289.702 318.463,301.369 324,312.5C 330.906,332.883 337.573,353.216 344,373.5C 347.33,381.366 350.497,389.366 353.5,397.5C 347.22,401.982 340.887,406.482 334.5,411C 328.301,413.411 322.301,416.244 316.5,419.5C 315.066,418.064 313.9,416.398 313,414.5C 309.533,404.434 305.867,394.434 302,384.5C 301.184,383.177 300.017,382.511 298.5,382.5C 298.66,380.801 298.494,379.134 298,377.5C 282.446,337.317 266.279,297.317 249.5,257.5C 249.369,256.624 249.702,255.957 250.5,255.5C 264.226,259.909 277.893,264.409 291.5,269C 297.282,272.582 303.615,274.582 310.5,275C 312.879,275.716 314.879,276.883 316.5,278.5 Z"/></g>
<g><path style="opacity:1" fill="#959594" d="M 35.5,265.5 C 43.1739,265.334 50.8406,265.5 58.5,266C 67.9957,266.899 77.329,268.065 86.5,269.5C 69.3105,268.913 52.3105,267.58 35.5,265.5 Z"/></g>
<g><path style="opacity:1" fill="#878786" d="M 207.5,259.5 C 208.5,259.5 209.5,259.5 210.5,259.5C 210.337,261.857 210.503,264.19 211,266.5C 215.826,285.167 220.326,303.834 224.5,322.5C 223.504,322.414 222.671,322.748 222,323.5C 198.382,354.786 174.382,385.786 150,416.5C 148.121,418.527 146.954,420.86 146.5,423.5C 145.5,423.5 144.5,423.5 143.5,423.5C 133.52,419.002 123.52,414.502 113.5,410C 110.915,407.746 108.248,405.58 105.5,403.5C 109.462,399.555 112.795,395.222 115.5,390.5C 117.587,389.415 118.92,387.749 119.5,385.5C 122.61,380.79 125.61,375.957 128.5,371C 127.396,369.285 126.062,367.785 124.5,366.5C 126.366,367.014 128.2,367.68 130,368.5C 155.845,332.13 181.679,295.797 207.5,259.5 Z"/></g>
<g><path style="opacity:1" fill="#c6c6c6" d="M 9.5,263.5 C 18.1073,264.298 26.774,264.965 35.5,265.5C 52.3105,267.58 69.3105,268.913 86.5,269.5C 95.6145,271.244 104.948,272.244 114.5,272.5C 120.813,273.221 127.146,273.887 133.5,274.5C 135.333,274.585 136.666,275.252 137.5,276.5C 119.475,294.251 102.141,312.584 85.5,331.5C 83.7317,328.716 81.2317,326.716 78,325.5C 58.7027,317.903 39.8693,309.403 21.5,300C 20.6667,299.167 19.8333,298.333 19,297.5C 15.3012,286.293 12.1345,274.96 9.5,263.5 Z"/></g>
<g><path style="opacity:1" fill="#a3a3a2" d="M 398.5,262.5 C 398.741,264.898 398.074,266.898 396.5,268.5C 396.259,266.102 396.926,264.102 398.5,262.5 Z"/></g>
<g><path style="opacity:1" fill="#9c9c9b" d="M 86.5,269.5 C 94.5242,269.566 102.524,270.066 110.5,271C 112.058,271.21 113.391,271.71 114.5,272.5C 104.948,272.244 95.6145,271.244 86.5,269.5 Z"/></g>
<g><path style="opacity:1" fill="#7c7c7b" d="M 396.5,269.5 C 396.598,271.553 395.931,273.22 394.5,274.5C 394.12,272.302 394.787,270.635 396.5,269.5 Z"/></g>
<g><path style="opacity:1" fill="#898989" d="M 321.5,279.5 C 324.397,280.129 327.064,281.129 329.5,282.5C 326.284,282.655 323.617,281.655 321.5,279.5 Z"/></g>
<g><path style="opacity:1" fill="#c6c6c6" d="M 316.5,278.5 C 318.216,278.629 319.883,278.962 321.5,279.5C 323.617,281.655 326.284,282.655 329.5,282.5C 337.898,286.02 346.565,289.02 355.5,291.5C 357.617,293.655 360.284,294.655 363.5,294.5C 369.222,297.074 375.222,299.074 381.5,300.5C 382.5,300.5 383.5,300.5 384.5,300.5C 384.267,302.062 383.6,303.395 382.5,304.5C 381.668,326.996 381.168,349.663 381,372.5C 380.096,375.233 378.596,377.567 376.5,379.5C 368.79,385.555 361.124,391.555 353.5,397.5C 350.497,389.366 347.33,381.366 344,373.5C 337.573,353.216 330.906,332.883 324,312.5C 318.463,301.369 314.296,289.702 311.5,277.5C 313.216,277.629 314.883,277.962 316.5,278.5 Z"/></g>
<g><path style="opacity:1" fill="#939393" d="M 394.5,275.5 C 393.94,277.801 393.44,280.134 393,282.5C 392.617,283.056 392.117,283.389 391.5,283.5C 392.06,281.199 392.56,278.866 393,276.5C 393.383,275.944 393.883,275.611 394.5,275.5 Z"/></g>
<g><path style="opacity:1" fill="#878787" d="M 391.5,284.5 C 391.573,286.027 390.906,287.027 389.5,287.5C 389.427,285.973 390.094,284.973 391.5,284.5 Z"/></g>
<g><path style="opacity:1" fill="#8d8d8d" d="M 355.5,291.5 C 358.397,292.129 361.064,293.129 363.5,294.5C 360.284,294.655 357.617,293.655 355.5,291.5 Z"/></g>
<g><path style="opacity:1" fill="#9a9a99" d="M 389.5,288.5 C 389.448,291.346 388.448,293.68 386.5,295.5C 386.935,292.843 387.935,290.509 389.5,288.5 Z"/></g>
<g><path style="opacity:1" fill="#a5a5a4" d="M 386.5,296.5 C 386.573,298.027 385.906,299.027 384.5,299.5C 384.427,297.973 385.094,296.973 386.5,296.5 Z"/></g>
<g><path style="opacity:1" fill="#c6c6c6" d="M 224.5,322.5 C 228.494,339.385 232.494,356.385 236.5,373.5C 235.527,373.987 234.527,374.487 233.5,375C 237.265,379.449 239.099,384.616 239,390.5C 240.796,392.514 241.296,394.681 240.5,397C 242.066,397.765 243.399,397.598 244.5,396.5C 246.167,396.5 247.833,396.5 249.5,396.5C 245.762,398.254 241.596,399.254 237,399.5C 234.482,401.564 231.648,403.064 228.5,404C 213.862,414.409 198.862,424.076 183.5,433C 180.167,433.667 176.833,433.667 173.5,433C 165.603,430.59 157.603,428.59 149.5,427C 147.568,425.541 145.568,424.375 143.5,423.5C 144.5,423.5 145.5,423.5 146.5,423.5C 146.954,420.86 148.121,418.527 150,416.5C 174.382,385.786 198.382,354.786 222,323.5C 222.671,322.748 223.504,322.414 224.5,322.5 Z"/></g>
<g><path style="opacity:1" fill="#7d7d7d" d="M 92.5,338.5 C 94.1436,338.81 95.1436,339.81 95.5,341.5C 93.8564,341.19 92.8564,340.19 92.5,338.5 Z"/></g>
<g><path style="opacity:1" fill="#dbdbdb" d="M 382.5,304.5 C 382.667,327.502 382.5,350.502 382,373.5C 381.351,376.647 379.518,378.647 376.5,379.5C 378.596,377.567 380.096,375.233 381,372.5C 381.168,349.663 381.668,326.996 382.5,304.5 Z"/></g>
<g><path style="opacity:1" fill="#717170" d="M 105.5,351.5 C 107.749,352.08 109.415,353.413 110.5,355.5C 110.167,355.5 109.833,355.5 109.5,355.5C 107.833,354.5 106.5,353.167 105.5,351.5 Z"/></g>
<g><path style="opacity:1" fill="#b4b4b4" d="M 109.5,355.5 C 109.833,355.5 110.167,355.5 110.5,355.5C 111.551,356.222 112.218,357.222 112.5,358.5C 110.81,358.144 109.81,357.144 109.5,355.5 Z"/></g>
<g><path style="opacity:1" fill="#7e7e7d" d="M 120.5,363.5 C 121.71,363.932 122.71,364.599 123.5,365.5C 121.821,365.715 120.821,365.048 120.5,363.5 Z"/></g>
<g><path style="opacity:1" fill="#afafaf" d="M 236.5,373.5 C 238.423,378.847 239.923,384.513 241,390.5C 241.586,393.019 242.753,395.019 244.5,396.5C 243.399,397.598 242.066,397.765 240.5,397C 241.296,394.681 240.796,392.514 239,390.5C 239.099,384.616 237.265,379.449 233.5,375C 234.527,374.487 235.527,373.987 236.5,373.5 Z"/></g>
<g><path style="opacity:1" fill="#a7a7a7" d="M 295.5,383.5 C 294.486,384.674 293.153,385.34 291.5,385.5C 292.287,383.896 293.62,383.229 295.5,383.5 Z"/></g>
<g><path style="opacity:1" fill="#b7b7b6" d="M 119.5,385.5 C 118.92,387.749 117.587,389.415 115.5,390.5C 116.08,388.251 117.413,386.585 119.5,385.5 Z"/></g>
<g><path style="opacity:1" fill="#bbbbba" d="M 291.5,385.5 C 284.99,388.949 277.99,391.283 270.5,392.5C 270.611,391.883 270.944,391.383 271.5,391C 278.193,389.161 284.86,387.327 291.5,385.5 Z"/></g>
<g><path style="opacity:1" fill="#9b9b9a" d="M 268.5,392.5 C 266.22,394.223 263.553,394.889 260.5,394.5C 262.905,393.232 265.572,392.565 268.5,392.5 Z"/></g>
<g><path style="opacity:1" fill="#b7b7b6" d="M 259.5,394.5 C 257.365,396.369 254.698,397.036 251.5,396.5C 251.5,396.167 251.5,395.833 251.5,395.5C 254.127,394.908 256.794,394.575 259.5,394.5 Z"/></g>
<animateTransform
      attributeName="transform"
      attributeType="XML"
      type="rotate"
      from="0"
      to="360"
      dur="2.5s"
      repeatCount="indefinite" />
</svg>
